<svg xmlns="http://www.w3.org/2000/svg" viewBox="0 0 1357.46 375.89"><defs><style>.cls-1{fill:#888;}.cls-2{fill:#898989;}.cls-3{fill:#909090;}.cls-4{fill:#afafaf;}.cls-5{fill:#b6b6b6;}.cls-6{fill:silver;}.cls-7{fill:#dcdcdc;}.cls-8{fill:#8a8a8a;}</style></defs><title>Fichier 1</title><g id="Calque_2" data-name="Calque 2"><g id="Calque_1-2" data-name="Calque 1"><path class="cls-1" d="M1356.94,74.06c-1.87.37-3.76,1.13-5.61,1-8.4-.45-16.79-1.14-25.18-1.75-3-.22-6-.35-8.9-.68-6.08-.68-9.44-4-10.41-10.66q-2-13.65-3.55-27.37c-1-9.14-1.82-18.32-2.73-27.48-.44-4.49,1.72-7.09,6.12-7.1q13.26,0,26.51.16c4,.05,5.12,1.13,5.74,4.93q4.2,25.62,8.41,51.23c1,5.88,4.62,7.29,10.12,3.91v1.2Q1357.21,67.77,1356.94,74.06Z"/><path class="cls-2" d="M1356.76,117.3c-8.81-4.27-17.7-8.37-26.38-12.89-4-2.06-7.52-5-7.6-10.15-.06-3.68,1-4.92,4.7-4.85,9.31.17,18.62.51,27.93.76.68,0,1.37-.07,2-.11v.59a17.25,17.25,0,0,0-.56,3C1356.81,101.56,1356.8,109.43,1356.76,117.3Z"/><path class="cls-3" d="M1357.46,287.76c-1.58,0-3.16-.12-4.73,0-2.42.17-3.35-1.08-2.94-3.22,1-5.19,3.85-9.32,7.67-12.85Z"/><path class="cls-3" d="M1357.46,163.9l-13.7-2.6c0-.3.07-.59.11-.89l13.59-1.87Z"/><path class="cls-4" d="M1356.81,302.17l.65-.12v73.24l-.66-.09Q1356.8,338.69,1356.81,302.17Z"/><path class="cls-5" d="M.52,72.27A1,1,0,0,1,0,72.19V.14L.66.26q0,16.82-.07,33.63Q.55,53.08.52,72.27Z"/><path class="cls-5" d="M1357.46,56.71l-1.11-2.46a8.13,8.13,0,0,0,.49-1.94q0-26,0-52.07l.65-.1Z"/><path class="cls-5" d="M.58,219.29l-.29.05L0,219.28v-53l.68.17Q.64,192.87.58,219.29Z"/><path class="cls-5" d="M.65,282.9,0,283V236.55l.67.14Q.66,259.79.65,282.9Z"/><path class="cls-6" d="M1357.46,211.54l-.29,0-.29,0q0-18.75-.05-37.5l.63,0Z"/><path class="cls-5" d="M0,121.62l1.91,1c-.44.85-1.26,1.69-1.26,2.55-.09,8.71,0,17.43,0,26.15l-.62,0Z"/><path class="cls-5" d="M1356.81,225.91l.65-.08v31l-.62,0Z"/><path class="cls-6" d="M1356.76,117.3c0-7.87,0-15.74.14-23.61a17.25,17.25,0,0,1,.56-3v26.8Z"/><path class="cls-7" d="M4.77,375.89a3.62,3.62,0,0,0,0-.57l25.09,0a2.36,2.36,0,0,0,0,.53Z"/><path class="cls-7" d="M950.73,375.36a2.36,2.36,0,0,0,0,.53H926.25a2.5,2.5,0,0,1,0-.47Z"/><path class="cls-7" d="M233.23,375.38c0,.17,0,.34,0,.51H209.34a2.72,2.72,0,0,0,0-.57Z"/><path class="cls-7" d="M540.39,375.38a4.36,4.36,0,0,0,0,.51H516.5c0-.18,0-.36,0-.54Z"/><path class="cls-7" d="M744.37,375.38a4.36,4.36,0,0,0,0,.51H721.08a5.24,5.24,0,0,0,0-.56Z"/><path class="cls-7" d="M1256.1,375.37a2.27,2.27,0,0,0,0,.52h-23.26a5.42,5.42,0,0,0,0-.57Z"/><path class="cls-7" d="M334.63,375.39c0,.17,0,.33,0,.5H311.93a4.58,4.58,0,0,0,0-.53Z"/><path class="cls-7" d="M437.21,375.39a4.07,4.07,0,0,0,0,.5H414.51a3.88,3.88,0,0,1,0-.48Z"/><path class="cls-7" d="M1153.52,375.39c0,.17,0,.33,0,.5h-22.66a2.59,2.59,0,0,1,0-.48Z"/><path class="cls-7" d="M129.46,375.39c0,.17,0,.33,0,.5H107.36a4.41,4.41,0,0,1,0-.52Z"/><path class="cls-7" d="M1050.34,375.39c0,.17,0,.33,0,.5h-22.07c0-.18,0-.35,0-.53Z"/><path class="cls-7" d="M1356.8,375.2l.66.09a4.57,4.57,0,0,1-1.49.57c-6.86,0-13.72,0-20.58,0l0-.51Z"/><path class="cls-7" d="M845.76,375.39c0,.17,0,.33,0,.5H823.66l0-.52Z"/><path class="cls-5" d="M1357.46,153.18l-.66-.12V133.65l.66-.12Z"/><path class="cls-7" d="M638.8,375.4l0,.49H619.09a2.59,2.59,0,0,1,0-.48Z"/><path class="cls-6" d="M.64,104.9,0,105V89.46a.5.5,0,0,1,.54,0Q.59,97.15.64,104.9Z"/><path class="cls-5" d="M1356.94,74.06q.25-6.28.52-12.58V74A2.25,2.25,0,0,1,1356.94,74.06Z"/><path class="cls-2" d="M1356.83,174.06q0,18.75.05,37.5c-7.12,2.41-14.16,5.13-21.41,7.08a16.78,16.78,0,0,1-8.94-.6,48.52,48.52,0,0,0-15.8-2c-12.11.13-24.23-.27-36.35-.47a9.73,9.73,0,0,1-1.6-.67l14.9-2.68c10.24-1.82,20.5-3.57,30.73-5.47,4.29-.8,5.68-2.35,5.74-5.62.06-4.17-2.52-6.63-6.65-5.74-8.81,1.91-17.58,4-26.33,6.22-17.22,4.3-34.4,8.71-50.93,15.3-6.47,2.58-12.91,3.25-19.61.19-2.46-1.13-5.58-1.1-8.41-1.14-13-.19-26-.22-39-.33a4.31,4.31,0,0,1-2.43-.81c15-2.66,30-5.29,45-8,4.82-.87,6.8-3.34,6-7.13s-3.27-5.2-7.43-4.21c-10.79,2.57-21.65,4.94-32.32,8q-21.71,6.17-43.15,13.25c-7.24,2.39-14.08,3.41-21.36.19-2.47-1.09-5.61-.86-8.44-.9-12.91-.18-25.82-.25-38.73-.38-.44,0-.87-.18-1.32-.89l17.35-3.1c9.08-1.6,18.16-3.16,27.23-4.82,2.69-.49,5.34-1.31,5.92-4.56.83-4.67-2.38-8-7-6.83-24.93,6.08-50.12,11.22-74.16,20.53-2.3.89-4.71,1.5-7,2.31-4.85,1.68-9.46.87-14.23-.71a36.52,36.52,0,0,0-10.43-1.54c-12.81-.26-25.62-.26-38.43-.38a2,2,0,0,1-1.63-.91q10.56-1.85,21.12-3.7c7.91-1.39,15.82-2.76,23.72-4.22,4.28-.79,6.25-3.1,5.79-6.5-.57-4.26-3.42-5.88-8.42-4.64-15.86,3.95-31.79,7.67-47.54,12-10.2,2.82-20.17,6.52-30.19,10a22.91,22.91,0,0,1-16.52-.22,27.74,27.74,0,0,0-9.25-1.32c-13.21-.28-26.42-.36-39.63-.54a11.5,11.5,0,0,1-2.35-.75c13.64-2.35,26.51-4.56,39.37-6.81,2.63-.46,5.27-1,7.84-1.69,3.67-1,5.08-3.48,4.23-6.92-.81-3.29-3.4-4.88-7.11-4-14,3.38-28,6.52-41.82,10.42-12.68,3.56-25.11,8-37.65,12-5,1.62-10,2.14-15.06-.25-3.87-1.85-8-1.66-12.22-1.64-12.81.07-25.62-.25-38.43-.44-.15,0-.31-.19-1.08-.68,4.1-.75,7.67-1.42,11.25-2.05,11.42-2,22.85-4,34.26-6.05,4-.72,5.6-2.51,5.59-5.74,0-4.19-2.58-6.54-6.75-5.62-8.81,1.94-17.56,4.16-26.33,6.26a438.11,438.11,0,0,0-53.2,16c-5.19,2-10.39,2.36-15.61-.13-3.59-1.71-7.42-1.56-11.34-1.54-13,.09-26-.23-39-.41a1.69,1.69,0,0,1-1.34-.84c7.34-1.24,14.68-2.46,22-3.74,7.91-1.38,15.82-2.75,23.71-4.25,4.56-.87,6.42-3.45,5.52-7.2-.82-3.48-3.34-5-7.29-4.09-11.67,2.78-23.41,5.34-34.93,8.62-14.95,4.27-29.73,9.14-44.57,13.8-5.07,1.6-10.07,2.1-15.06-.32-4-1.94-8.24-1.61-12.54-1.55-12.77.18-25.55.06-38.32.06l-.12-1.26c1.81-.36,3.61-.72,5.42-1.06s3.71-.65,5.57-1c11.22-2,22.46-3.91,33.67-6,4.49-.83,6-2.56,5.88-6.12-.12-3.83-2.71-6.15-6.52-5.33-8,1.74-16,3.67-24,5.66-18.08,4.49-36.15,9-53.51,15.94-6.37,2.54-12.71,3.21-19.33.2-2.64-1.19-6-1.13-9-1.18-13.21-.22-26.41-.26-39.62-.38-.35,0-.7-.15-1.09-.83l14.32-2.56c10.15-1.8,20.31-3.56,30.45-5.41,2.34-.43,4.72-1,5.7-3.64,1.67-4.55-1.64-8.86-6.37-7.81-10.44,2.34-20.79,5.08-31.22,7.51a412.88,412.88,0,0,0-48.86,15c-5.1,1.88-10.26,2.13-15.34-.32-3.7-1.79-7.64-1.57-11.65-1.51-13,.18-26,.07-38.94.07l-.13-1.25c1.7-.34,3.4-.69,5.11-1s3.7-.67,5.56-1c11.32-2,22.65-3.94,34-6,4.46-.81,6-2.6,5.88-6.12-.14-4-3-6.21-7.15-5.24-10.32,2.42-20.61,5-30.91,7.5-15.23,3.72-30.33,7.87-44.92,13.66-1.93.77-4,1.28-5.95,1.89-4.79,1.47-9.31.52-14-1.07a30.67,30.67,0,0,0-9.26-1.42c-13-.23-26-.24-39-.36a3.52,3.52,0,0,1-2.2-.87q19.39-3.36,38.78-6.73a71.62,71.62,0,0,0,8.13-1.74c3.6-1.08,4.83-3.57,3.86-7.14-.81-3-3.24-4.57-6.69-3.73-16.46,4-33,7.87-49.31,12.34-10,2.74-19.79,6.41-29.62,9.81-5.56,1.92-11,2.47-16.47-.14-3.64-1.74-7.47-1.47-11.37-1.42-13,.16-25.95.06-38.93.06l-.13-1.26c1.71-.34,3.41-.7,5.12-1s3.71-.66,5.56-1c11.33-2,22.66-4,34-6,2.6-.47,5.08-1.34,5.74-4.41,1-4.63-2.44-8.1-7.21-6.93-25.4,6.2-51.07,11.47-75.51,21.09-7.07,2.78-14,3.82-21.32.42-2-.95-4.61-.93-6.95-1-13.4-.19-26.81-.25-40.22-.38a2,2,0,0,1-1.63-.9L66.79,211c7.9-1.4,15.82-2.74,23.7-4.25,2.67-.51,5.3-1.37,5.62-4.78.49-5.32-2.63-7.72-8.46-6.31-12.13,3-24.32,5.68-36.32,9.1-13.9,4-27.6,8.65-41.44,12.86a79.54,79.54,0,0,1-9.31,1.7q.06-26.41.1-52.84c10.11,2.8,20.13,6,30.36,8.28,8.1,1.79,16.45,2.48,24.71,3.48a6.39,6.39,0,0,0,6.52-3.32c1.88-3.14,1-6.28-2.59-7.39a42.17,42.17,0,0,0-8.2-1.24c-9.56-1-19.14-1.91-28.68-3A75.29,75.29,0,0,1,14,161.15l.05-1c10.67-1.32,21.33-2.7,32-3.93,3.35-.39,6.77-.14,10.11-.56,11.6-1.44,22,3,32.76,6.12,15.87,4.64,31.72,9.41,47.73,13.58,6.47,1.68,13.31,2,20,2.85a12,12,0,0,0,2.68,0,6.51,6.51,0,0,0,6-5.92c.1-3-1.74-5-5.51-5.4-5-.55-10.12-.62-15.13-1.29-9-1.21-18-2.7-27-4.11a10.59,10.59,0,0,1-2-.82c18.09-3.4,35.77-5.5,53.65-4.87,4.34.16,8.64,2,12.9,3.3,16,4.82,31.92,10.2,48.11,14.43,9.53,2.49,19.52,3.26,29.32,4.67a8.48,8.48,0,0,0,4.05-.62,5.87,5.87,0,0,0,4-6.28c-.54-2.91-2.74-4.12-5.34-4.39-5.52-.56-11.07-.89-16.61-1.27-9.19-.65-18.27-1.91-27.13-5.16,6.56-1,13.09-2.31,19.69-3,8.48-.87,17-1.23,25.53-1.83a48.87,48.87,0,0,1,18.39,2.64c16.91,5.35,33.81,10.8,50.95,15.33,9.33,2.47,19.12,3.19,28.73,4.57a8.66,8.66,0,0,0,4.06-.6,6,6,0,0,0,4.08-6.24c-.45-3-2.69-4.15-5.27-4.43-5.22-.58-10.51-.65-15.71-1.35-8.83-1.17-17.62-2.66-26.42-4a2.2,2.2,0,0,1-1.51-1.1c6.4-1,12.76-2.35,19.2-2.92,10.27-.9,20.6-1.71,30.9-1.67,5.1,0,10.29,1.71,15.28,3.17,16.26,4.77,32.33,10.25,48.72,14.52,9.53,2.48,19.52,3.22,29.31,4.65a8.08,8.08,0,0,0,3.49-.48,6.09,6.09,0,0,0,4.3-6.09c-.17-2.46-2.15-4.43-5.29-4.72-7.81-.72-15.66-1-23.43-1.94-6.85-.81-13.62-2.24-20.42-3.4l0-1c3.58-.63,7.14-1.5,10.75-1.83,12.34-1.14,24.7-2.07,37.05-3.09,4.83-.4,9.41.62,14,2.08,15.2,4.86,30.38,9.8,45.72,14.2a155.58,155.58,0,0,0,36.56,6.3,6.79,6.79,0,0,0,6.68-3.6c1.65-2.94.79-6-2.42-7a44.16,44.16,0,0,0-8.47-1.37c-10.53-1.24-21.07-2.38-31.59-3.66a43.52,43.52,0,0,1-5.86-1.52l0-.75c8.29-1.17,16.56-2.66,24.88-3.43s16.85-1,25.29-1.15a30.43,30.43,0,0,1,9,1.33c18.33,5.46,36.5,11.48,55,16.48,9.12,2.47,18.72,3.2,28.12,4.67a12.83,12.83,0,0,0,3,0,6.54,6.54,0,0,0,6-5.94c.13-3-1.77-5-5.51-5.39-5.23-.55-10.52-.59-15.72-1.3-9.12-1.24-18.19-2.81-27.28-4.26-.23,0-.43-.33-.68-1.3q17.93-2,35.84-3.93c2.07-.22,4.17-.13,6.23-.4,12.44-1.65,23.55,3.45,35,6.74,15.14,4.36,30.2,9,45.46,12.88,7,1.77,14.29,2,21.47,2.88a7.59,7.59,0,0,0,3.47-.58c2.67-1,4.58-3.94,4.14-6.25-.58-3-2.86-4.2-5.59-4.49-4.84-.5-9.72-.62-14.53-1.26-9.23-1.23-18.41-2.71-27.61-4.1a1.91,1.91,0,0,1-1.35-1c5-.82,9.92-1.92,14.93-2.41,10.07-1,20.17-1.64,30.25-2.43,6.33-.49,12.36.69,18.4,2.62,16,5.1,31.89,10.34,48.07,14.61,10,2.64,20.45,3.63,30.71,5.32a12,12,0,0,0,2.68,0,6.68,6.68,0,0,0,6.36-6c.18-2.78-1.88-5-5.6-5.36-5.13-.56-10.31-.61-15.42-1.3-9-1.2-18-2.72-27-4.13-.34-.05-.65-.27-1-1,6.49-1,12.94-2.31,19.46-2.94,8.88-.88,17.83-1.06,26.72-1.88,8.12-.74,15.41,2.22,22.89,4.43,16.63,4.91,33.19,10.08,49.91,14.63,6.76,1.84,13.86,2.4,20.82,3.43a24,24,0,0,0,5.36.07c3.4-.26,6.17-3.12,6.15-6.16,0-2.83-2.13-4.84-5.81-5.18-7.41-.67-14.87-.94-22.25-1.88-6.86-.87-13.64-2.4-20.45-3.67-.23,0-.41-.36-1.19-1.08,11.34-1.39,22.11-2.75,32.89-4,3.15-.36,6.37-.16,9.52-.54,11.67-1.42,22.24,2.89,33,6.11,14.91,4.44,29.75,9.14,44.81,13,7.72,2,15.85,2.39,23.8,3.43a8,8,0,0,0,3.23-.32c3-.89,5.15-3.77,4.78-6.42-.44-3.1-2.78-4.29-5.47-4.58-5.23-.56-10.48-.92-15.73-1.24a106,106,0,0,1-28.13-5c3.58-.63,7.13-1.48,10.74-1.85,11-1.13,22.12-2.07,33.19-3.07,7.55-.69,14.7.94,21.88,3.22,16.15,5.12,32.29,10.33,48.67,14.64,9.34,2.45,19.12,3.24,28.72,4.67a9.4,9.4,0,0,0,4.09-.47,6,6,0,0,0,4.24-6.42c-.4-3-2.69-4.12-5.25-4.4-5.22-.58-10.48-1-15.72-1.27-9.5-.6-18.9-1.78-28.06-5.13,5-.81,9.93-1.87,14.94-2.39,9.37-1,18.78-1.58,28.16-2.45,8.5-.78,16.45,1.26,24.47,3.8,16.25,5.15,32.51,10.32,49,14.61,8.85,2.31,18.18,2.85,27.3,4.1a7.17,7.17,0,0,0,3.19-.46c2.85-1,4.89-3.9,4.44-6.32-.56-3-2.82-4.26-5.55-4.53-5.23-.53-10.52-.6-15.72-1.3-8.83-1.18-17.61-2.69-26.41-4.07a2,2,0,0,1-1.37-1c5.07-.83,10.12-2,15.23-2.41,11.86-1,23.74-2,35.63-2.26,4.4-.1,8.94,1.47,13.26,2.77C1323.13,163.65,1340,168.89,1356.83,174.06Z"/><path class="cls-1" d="M448.71.22c4.77,0,9.54-.07,14.3,0,4.33.07,6.28,1.49,7,5.74,1.35,8.3,2.42,16.65,3.53,25,1.53,11.48,3,23,4.45,34.45a18.91,18.91,0,0,1-.26,5.86c-.84,4.2-2.73,5.78-7.05,5.63-9.12-.32-18.24-.82-27.36-1.32s-18-1.1-27-1.65c-6.74-.42-13.49-.7-20.21-1.27-5.72-.49-9.12-3.8-10.16-10.28-1.22-7.62-2.05-15.31-2.93-23-1.19-10.32-2.32-20.66-3.32-31A9.37,9.37,0,0,1,380.4,3,6.24,6.24,0,0,1,384.74.19C394,0,403.21.09,412.45.24c3.79.06,5,1.36,5.59,5.16q4.17,25.49,8.37,51c.69,4.18,2.46,5.9,5.81,5.75,2.76-.12,4-1.5,3.63-4.19q-3.06-21-6.18-42c-.42-2.84-1-5.66-1.33-8.51-.59-4.58,1.73-7.19,6.36-7.22s9.34,0,14,0Z"/><path class="cls-1" d="M653.21.25c4.87,0,9.74-.13,14.6,0,4.61.17,6.08,1.28,6.82,5.86,1.53,9.47,2.76,19,4,28.5C680,44.75,681.31,54.86,682.6,65a22.45,22.45,0,0,1,.24,3.84c-.27,5.89-2.73,8.37-8.64,8.07-16.25-.81-32.5-1.79-48.75-2.73-6.93-.4-13.86-1-20.8-1.25-9.16-.28-13-1.54-14.61-13.66-2.26-17.48-4-35-5.88-52.54-.42-3.87,2-6.65,5.73-6.65q13.41,0,26.82.16c4.28.05,5.29,1.1,6,5.36q4.14,25.34,8.34,50.66c.68,4.12,2.28,5.81,5.41,5.87s4.48-1.17,4.06-4.29c-1.17-8.53-2.42-17-3.67-25.57-1.27-8.72-2.61-17.42-3.85-26.14-.44-3.06,2.19-5.84,5.62-5.9,4.87-.09,9.73,0,14.6,0Z"/><path class="cls-1" d="M550.72.2c4.68,0,9.35-.05,14,0,5.16.07,7.1,1.63,7.79,6.66q3.39,24.71,6.58,49.45a103.32,103.32,0,0,1,1.24,12.11c.09,6.4-2.32,8.75-8.67,8.44C554.43,76,537.18,75,519.94,74c-7-.4-14.07-.81-21.1-1.32-5.8-.42-9.19-3.25-10.32-9.29C487.33,57,486.57,50.48,485.83,44c-1.38-12.1-2.74-24.21-3.84-36.34C481.45,1.74,483.33,0,489.33,0q12.23,0,24.45.17c4.81,0,5.9.93,6.68,5.71,2.49,15.14,4.9,30.29,7.36,45.43.37,2.25.76,4.5,1.25,6.72a5.21,5.21,0,0,0,6.6,3.94c2-.56,2.87-1.74,2.53-4-1.8-11.84-3.5-23.7-5.21-35.55-.76-5.29-1.61-10.58-2.17-15.89-.43-4.09,1.79-6.32,5.89-6.35,4.67,0,9.34,0,14,0Z"/><path class="cls-1" d="M960.29.19c4.67,0,9.34,0,14,0,4.83.07,6.76,1.56,7.46,6.3,1.66,11.17,3.15,22.35,4.65,33.54,1.16,8.63,2.42,17.26,3.27,25.93.88,8.83-2.77,11.43-9.5,11-16.84-1.1-33.69-2-50.54-2.95-7.13-.42-14.27-.81-21.4-1.29-6.31-.42-10.34-4.87-11.16-12.14q-2.93-26.13-5.89-52.25C890.54,2.54,892.77,0,898.58,0q12.36,0,24.74.23c4.58.07,5.73,1.21,6.45,5.64q4.15,25.5,8.38,51c.66,4,3.1,5.86,6.54,5.2,2-.38,3.19-1.44,2.85-3.73-2.47-16.64-4.79-33.31-7.43-49.93-.91-5.73,2.44-8.63,7.07-8.28,4.35.33,8.74.07,13.11.07Z"/><path class="cls-1" d="M1164.58.22c4.86,0,9.73-.1,14.6,0s6.42,1.32,7.16,6.16c1.69,11.16,3.16,22.34,4.67,33.53,1.15,8.53,2.27,17.07,3.28,25.62a17.9,17.9,0,0,1-.23,5.56c-.88,4.32-2.9,6-7.25,5.81-9.13-.36-18.25-.86-27.37-1.36s-18.22-1.07-27.33-1.63c-6.54-.4-13.09-.71-19.61-1.3-5.86-.53-9.26-3.79-10.19-9.83-1.17-7.63-2.15-15.29-3-23-1.22-10.62-2.22-21.27-3.41-31.9-.59-5.29,1.56-8,6.82-7.95q12.68,0,25.33.23c4.54.07,5.64,1.18,6.37,5.71q4.13,25.33,8.35,50.67c.69,4.13,2.64,5.75,6,5.49,2.69-.2,3.79-1.4,3.41-4.05-1.61-11.27-3.28-22.52-4.93-33.78-.88-6-1.82-11.94-2.63-17.93A5.34,5.34,0,0,1,1150,.26c4.87-.07,9.74,0,14.61,0Z"/><path class="cls-1" d="M243.77.22c4.67,0,9.34-.07,14,0,5.19.09,6.88,1.37,7.63,6.39,1.69,11.26,3.2,22.55,4.71,33.83,1.17,8.74,2.34,17.48,3.24,26.24a15.78,15.78,0,0,1-1,6.64c-1,2.75-3.46,3.73-6.26,3.6q-13.85-.63-27.67-1.38c-8.92-.49-17.84-1.08-26.75-1.62-6.74-.41-13.49-.7-20.22-1.25-6.29-.51-9.73-4.46-10.67-12.24q-3.06-25.37-5.94-50.76a23.12,23.12,0,0,1,0-4.16c.24-3.35,2.41-5.5,5.76-5.5q13.57,0,27.13.23c3.66,0,5.15,1.5,5.74,5.13,2.78,17.1,5.54,34.2,8.41,51.28.24,1.47.85,3.5,1.93,4.07a9,9,0,0,0,5.76.82c2.18-.48,1.76-2.61,1.49-4.48C228.59,40.53,226.21,24,223.81,7.4c-.67-4.6,1.54-7.16,6.25-7.18S239.2.22,243.77.22Z"/><path class="cls-1" d="M1062.08.22c4.77,0,9.54-.1,14.31,0,5.48.14,7.06,1.45,7.83,6.9,1.89,13.33,3.62,26.68,5.41,40,.75,5.6,1.52,11.19,2.18,16.8a30,30,0,0,1,.18,5.92c-.39,4.89-2.85,7.22-7.72,7-8.83-.32-17.65-.81-26.47-1.31-12.59-.72-25.17-1.51-37.76-2.27-3.27-.2-6.54-.32-9.8-.65-5.6-.56-8.83-3.19-10-9-1.23-6.2-2-12.51-2.7-18.8-1.4-11.9-2.67-23.82-4-35.73a21.29,21.29,0,0,1-.06-3.57c.27-3.69,2.22-5.58,6-5.58q13,0,25.93.2c4.88.06,6.06,1.1,6.83,6,1.65,10.36,3.23,20.73,4.91,31.08,1.11,6.84,2.38,13.65,3.52,20.49a4.89,4.89,0,0,0,4,4.29c3.38.82,5.53-.89,5.09-4.31-1.17-9-2.55-18-3.83-27-1.15-8-2.37-16.06-3.38-24.12-.5-4,1.75-6.32,5.86-6.34C1052.94.2,1057.51.22,1062.08.22Z"/><path class="cls-1" d="M141.46.22c4.77,0,9.55-.1,14.31,0,4.94.13,6.87,1.8,7.53,6.67q3.4,25.16,6.64,50.35a106.34,106.34,0,0,1,1.14,11.22c.13,6.08-2.48,8.7-8.51,8.4-16-.8-31.92-1.78-47.87-2.7-7.24-.42-14.47-1.09-21.71-1.27C84.1,72.69,80,71.3,78.45,59.81c-2.36-17-3.89-34-5.75-51.07a19.36,19.36,0,0,1,0-3.57C72.91,2,74.82,0,78.05,0q13.86,0,27.72.23c3.35.06,4.57,1.26,5.13,4.6q4.2,25.49,8.39,51c.76,4.6,2.35,6.31,5.7,6.29,3,0,4.22-1.25,3.81-4.25q-2.1-15.3-4.35-30.58c-1-6.85-2.16-13.68-3.19-20.53-.55-3.63,2-6.52,5.89-6.57,4.77-.06,9.54,0,14.31,0Z"/><path class="cls-1" d="M857.89.23c4.77,0,9.54-.1,14.31,0s6.35,1.31,7.09,5.92c1.49,9.38,2.7,18.81,4,28.22,1.33,9.92,2.6,19.84,3.87,29.76a30,30,0,0,1,.33,4.43c-.11,6-2.71,8.65-8.66,8.34-16.15-.83-32.3-1.83-48.46-2.78-7-.41-14.07-1.16-21.11-1.2-9.86-.06-13.28-3.47-14.67-14.09-2-15.42-3.59-30.89-5.31-46.35A51.41,51.41,0,0,1,789,5.37C789.08,2,791.09.06,794.46.06c9,0,18.08,0,27.12.17,4,.05,5,1,5.66,5C830,22,832.73,38.83,835.63,55.6c.35,2,1.27,4.37,2.75,5.51,1.21.94,3.8.75,5.45.16.81-.28,1.37-2.69,1.19-4-1.31-10-2.84-20-4.3-30-1-7-2.05-14.1-3-21.16-.44-3.2,2.19-5.85,5.89-5.89,4.77-.06,9.54,0,14.31,0Z"/><path class="cls-1" d="M755.44.4C760.7.4,766,.17,771.22.47,775,.69,776.52,2.34,777,6q2.51,17.64,4.82,35.31,1.62,12.21,3.09,24.45a19.85,19.85,0,0,1,0,4.15c-.46,4.92-2.86,7.19-7.78,7-8.73-.33-17.46-.82-26.18-1.31-9.31-.53-18.62-1.12-27.93-1.69-6.64-.4-13.28-.7-19.91-1.25-6-.5-9.83-4.68-10.64-11.61q-3-26-5.94-51.94a23.62,23.62,0,0,1-.05-3.57A5.43,5.43,0,0,1,692.23,0q13.26,0,26.52.21c4.48.06,5.55,1,6.29,5.45,2.29,13.76,4.49,27.54,6.74,41.31.59,3.61,1.18,7.22,1.91,10.81a5.23,5.23,0,0,0,6.15,4.3c2.22-.29,3.4-1.49,3-3.85q-2.39-16.45-4.78-32.9c-.89-6.07-1.85-12.14-2.63-18.22-.57-4.49,1.71-6.93,6.25-7s9.14,0,13.71,0Z"/><path class="cls-1" d="M345.82.2c4.67,0,9.34-.07,14,0,5.65.11,7.3,1.45,8.08,7,1.7,12,3.26,23.93,4.83,35.91,1,8,2.11,15.9,2.95,23.87a14.89,14.89,0,0,1-.72,5.83c-.9,2.91-3.24,4.2-6.21,4.08q-10.71-.45-21.41-1.08-26.46-1.51-52.91-3.11c-6.31-.38-10-3.85-11-10.8-1.39-9.6-2.56-19.23-3.66-28.87q-1.44-12.7-2.48-25.43C276.86,1.88,278.76,0,284.44,0q12.66.08,25.33.24c4,.06,5.15,1,5.79,4.84q4.13,24.9,8.22,49.8c.2,1.17.39,2.35.7,3.49a5.25,5.25,0,0,0,6.26,3.7c3.06-.54,3-2.77,2.67-5C331.74,45.5,330,34,328.33,22.39,327.57,17.2,326.79,12,326.2,6.8c-.49-4.31,1.64-6.56,5.91-6.58,4.57,0,9.14,0,13.71,0Z"/><path class="cls-1" d="M1267.23.2c4.67,0,9.34-.07,14,0,5,.1,6.92,1.69,7.59,6.54,2.06,14.91,4,29.83,6,44.75.63,4.71,1.26,9.42,1.81,14.14a20.65,20.65,0,0,1,0,4.16c-.46,5.09-2.81,7.35-8,7.11-14.08-.68-28.15-1.52-42.22-2.33-10.41-.59-20.81-1.19-31.21-1.88-6.14-.4-10-4.12-10.92-10.95-1.59-12.08-2.91-24.19-4.27-36.29-.69-6.1-1.37-12.2-1.78-18.33C1197.93,2,1200,0,1205,0c8.34,0,16.69.08,25,.15,4.82,0,5.94.94,6.72,5.67,2.47,14.94,4.87,29.88,7.32,44.83.39,2.44.79,4.88,1.3,7.3a5.18,5.18,0,0,0,6.81,3.94c1.68-.52,2.6-1.44,2.29-3.51-1.82-12.24-3.51-24.5-5.26-36.75-.7-4.89-1.57-9.77-2.14-14.69-.5-4.34,1.81-6.77,6.14-6.79,4.67,0,9.34,0,14,0Z"/><path class="cls-1" d="M618.05,89.4l64.31,2.48c6.63.25,10.5,4.44,13.84,9.5a125.18,125.18,0,0,0,7.94,11.44c4.3,5.13,10.26,8.13,16.28,10.73,15.2,6.57,30.49,12.93,45.73,19.39,2.22.94,5.27,1.36,4.89,4.66-.41,3.48-3.67,2.85-5.93,3.1-11.13,1.27-22.28,2.56-33.45,3.38-3.84.28-8.19.09-11.63-1.42q-49.41-21.81-98.54-44.26a67.53,67.53,0,0,1-10.94-6.55,9.34,9.34,0,0,1-4.1-8.75c.19-2.23,1.31-3.54,3.55-3.62,2.68-.1,5.36,0,8,0Z"/><path class="cls-1" d="M106.94,89.45c19.92.75,41,1.66,62,2.28,6.77.19,11.41,3.26,14.95,8.69,2.69,4.15,5.2,8.48,8.39,12.23,4.58,5.4,10.9,8.56,17.31,11.31,15.4,6.62,30.86,13.08,46.3,19.6.45.19,1.09.25,1.34.59.81,1.11,2.13,2.41,2,3.49s-1.76,2.41-2.89,2.58c-6.37.95-12.79,1.63-19.2,2.31-5.52.59-11,1.36-16.59,1.49-4,.09-8.44.24-11.94-1.31q-51.15-22.65-102-46a33.46,33.46,0,0,1-10-7.65c-1.42-1.51-1.56-4.56-1.51-6.89,0-.93,2-2.38,3.29-2.6C100.8,89.15,103.33,89.45,106.94,89.45Z"/><path class="cls-1" d="M413.2,89.49q27.68.95,55.36,1.9c3.17.11,6.34.34,9.51.5,5,.25,8.54,2.94,11.43,6.68a34.36,34.36,0,0,1,3.4,5.22,38.15,38.15,0,0,0,18.91,17.82c16.6,7.29,33.32,14.3,50,21.45,2.13.91,5.05,1.44,4.63,4.54-.45,3.34-3.62,2.87-5.95,3.12-11.24,1.22-22.49,2.32-33.73,3.48a23.71,23.71,0,0,1-12.5-1.83q-50.4-22.8-100.75-45.68c-3.19-1.45-6-3.84-8.79-6a8.34,8.34,0,0,1-2.23-3.1c-2.32-5-.31-8.15,5.06-8.2,1.89,0,3.78,0,5.66,0Z"/><path class="cls-1" d="M822.25,89.4c21.6.82,42.94,1.66,64.28,2.44a14.87,14.87,0,0,1,11.38,5.57,23.43,23.43,0,0,1,3.4,4.87c5.06,10.7,13.87,17.15,24.39,21.63,15.24,6.49,30.53,12.84,45.8,19.26a6.06,6.06,0,0,1,2.37,1.17c.82,1,1.86,2.35,1.7,3.39a3.93,3.93,0,0,1-2.69,2.47c-6.28.94-12.59,1.65-18.9,2.32-5.82.62-11.66,1.08-17.48,1.66a24.57,24.57,0,0,1-12.83-1.76Q873,129.5,822.31,106.49a33.4,33.4,0,0,1-6.74-4.31A11.78,11.78,0,0,1,812,97.89c-1.85-4.43-1.48-9.11,4.86-8.52C818.72,89.54,820.62,89.4,822.25,89.4Z"/><path class="cls-1" d="M721,89.43c20.8.79,42,1.64,63.28,2.4,5.32.19,9.23,2.73,12.3,6.78a41.85,41.85,0,0,1,3.54,5.5,39.08,39.08,0,0,0,19.59,18c16.27,7.07,32.62,14,48.93,21,2.15.91,5.12,1.39,4.83,4.43-.33,3.33-3.47,3-5.86,3.28-11.25,1.2-22.48,2.52-33.76,3.35-3.75.27-8,.09-11.34-1.39Q771,129.78,719.71,106.26c-3.08-1.41-5.79-3.77-8.39-6-2.11-1.82-2.77-4.38-2.45-7.29.28-2.55,1.65-3.46,3.91-3.51C715.36,89.38,717.94,89.43,721,89.43Z"/><path class="cls-1" d="M310.44,89.38c20.89.8,41.43,1.81,62,2.27,7.74.17,13,3.44,16.79,9.78,1.47,2.47,2.86,5,4.48,7.37,4.82,7.08,11.82,11.37,19.48,14.67,15.57,6.69,31.21,13.24,46.82,19.85.64.27,1.47.4,1.86.88.86,1.06,2.16,2.39,2,3.44a4.14,4.14,0,0,1-2.9,2.58c-6.37,1-12.79,1.64-19.2,2.32-5.42.57-10.88.9-16.3,1.53a25.67,25.67,0,0,1-14-1.87c-33.24-15.06-66.55-30-99.72-45.2-3.85-1.77-7.18-4.83-10.44-7.64-1.11-1-1.68-2.94-1.84-4.52-.41-4.14.85-5.35,5-5.44,1.09,0,2.18,0,3.28,0Z"/><path class="cls-1" d="M1129.4,89.39l64.47,2.47a13.13,13.13,0,0,1,10.18,4.78,42.48,42.48,0,0,1,5,7,40.09,40.09,0,0,0,20.15,18.61c15.27,6.65,30.62,13.13,45.94,19.68a25.93,25.93,0,0,1,5.13,2.32c1.11.79,2.31,2.35,2.29,3.54,0,.88-1.86,2.3-3,2.48-6.17.94-12.39,1.63-18.6,2.28-5.92.63-11.86,1.09-17.78,1.67a23.87,23.87,0,0,1-12.51-1.77c-33-14.91-66-29.73-99-44.76-3.81-1.75-7.2-4.48-10.64-7a7.94,7.94,0,0,1-2.35-3.36c-2.08-5-.14-7.91,5.19-7.93Z"/><path class="cls-1" d="M208.27,89.39c22,.84,43.1,1.68,64.24,2.42,6,.21,10.05,3.33,13.21,8,2.41,3.51,4.47,7.27,7,10.71,4.85,6.68,12,10.34,19.28,13.51,14.37,6.25,28.85,12.22,43.28,18.32a21,21,0,0,1,4.58,2.08c1,.73,2,2.27,1.86,3.26a4,4,0,0,1-2.75,2.53c-6.26.95-12.57,1.66-18.88,2.33-5.92.63-11.86,1.12-17.78,1.67a23.2,23.2,0,0,1-12-1.55C277.22,137.7,244.08,122.85,211,107.8c-3.9-1.78-7.39-4.54-10.91-7.07a7.84,7.84,0,0,1-2.53-3.59c-1.86-5.2,0-7.72,5.54-7.75C205.12,89.38,207.11,89.39,208.27,89.39Z"/><path class="cls-1" d="M1026.91,89.4q32,1.21,64,2.42a14.59,14.59,0,0,1,11.44,5.41,27.86,27.86,0,0,1,3.83,5.3c5.1,10.83,14.11,17.13,24.72,21.63q22.33,9.45,44.69,18.83c.82.35,1.88.48,2.41,1.08,1,1.08,2.2,2.46,2.16,3.67,0,.9-1.82,2.36-3,2.51-8.25,1.12-16.54,2-24.83,2.87a126,126,0,0,1-14.23,1.08,24.39,24.39,0,0,1-9.53-1.78q-49.06-21.84-97.94-44.12c-4.51-2.07-8.46-5.38-12.52-8.33a6,6,0,0,1-2.1-3.49c-1.09-5.68.6-7.4,5.19-7.1C1023.12,89.5,1025,89.4,1026.91,89.4Z"/><path class="cls-1" d="M516.23,89.43c20.56.78,41.49,1.69,62.43,2.32,6.84.21,11.25,3.67,14.78,9,2.73,4.12,5.23,8.46,8.44,12.18,5.89,6.83,14.29,9.92,22.26,13.41,13.35,5.84,26.89,11.24,40.35,16.84a6.86,6.86,0,0,1,2.62,1.35c.75.88,1.59,2.23,1.42,3.22a3.72,3.72,0,0,1-2.44,2.41c-4.59.78-9.23,1.29-13.87,1.77-7.59.8-15.2,1.48-22.8,2.24a24.13,24.13,0,0,1-12.53-1.71C589.46,140.2,562,128,534.58,115.7q-10.86-4.87-21.39-10.43a23.62,23.62,0,0,1-7.05-5.79c-1.31-1.6-1.78-4.11-2-6.28s1.33-3.67,3.68-3.75C510.48,89.36,513.17,89.43,516.23,89.43Z"/><path class="cls-1" d="M925.36,89.42c20.41.78,41.15,1.7,61.89,2.3a17.24,17.24,0,0,1,14.75,8,50.48,50.48,0,0,1,3,4.8,36.17,36.17,0,0,0,17.64,16.65c16.41,7.26,32.94,14.24,49.42,21.34a19.65,19.65,0,0,1,4.29,2c.89.69,1.91,2.22,1.7,3.09a4.1,4.1,0,0,1-2.72,2.57c-6.37,1-12.78,1.68-19.19,2.37-5.92.63-11.84,1.46-17.78,1.57-4,.06-8.34-.13-11.87-1.69-31.77-14-63.41-28.27-95-42.56a93.19,93.19,0,0,1-12.25-6.7c-3.38-2.2-6-5.12-5.67-9.77.19-2.83,1.5-3.92,4.07-3.95S922.55,89.42,925.36,89.42Z"/><path class="cls-1" d="M.64,104.9Q.58,97.16.54,89.41l50.9,1.82c5.26.19,10.52.51,15.78.56a15.4,15.4,0,0,1,12.56,6.28,24.14,24.14,0,0,1,3,4.39c4.89,10.39,13.38,16.75,23.63,21.11q23,9.8,46,19.5c2.15.91,5,1.49,4.62,4.56s-3.42,2.85-5.69,3.09c-11.34,1.22-22.69,2.34-34,3.5a24,24,0,0,1-12.51-1.83Q54.44,129.56,4.06,106.7C2.89,106.17,1.78,105.5.64,104.9Z"/><path class="cls-1" d="M.52,72.27q0-19.19.07-38.38Q.62,17.08.66.26a29.76,29.76,0,0,1,3.27,0C6.36.43,8,1.58,8.4,4.17Q11,20.3,13.69,36.39c1.19,7.13,2.37,14.25,3.64,21.36A5.17,5.17,0,0,0,24,62c1.86-.44,2.94-1.52,2.62-3.63q-3-20.41-6-40.84c-.53-3.63-1.11-7.25-1.48-10.89C18.73,2.66,21,.21,25,.19c9.14,0,18.28,0,27.42,0,6.06,0,7.62,1.23,8.48,7.18,2.07,14.3,3.95,28.63,5.86,43,.72,5.4,1.34,10.81,1.94,16.22a17.11,17.11,0,0,1-.1,3.85c-.56,4.45-2.84,6.6-7.32,6.51-5.46-.1-10.91-.44-16.36-.75q-19-1.08-38-2.24a47,47,0,0,1-5-.47C1.33,73.38,1,72.69.52,72.27Z"/><path class="cls-1" d="M1356.8,133.65v19.41c-11.8,2.53-23,1.27-33.57-4.93-1.53-.89-3.28-1.4-4.9-2.14-28.51-13-57.06-25.87-85.5-39-3.52-1.63-6.62-4.27-9.72-6.68a7.89,7.89,0,0,1-2.3-3.71c-1.6-4.91.1-7.34,5.23-7.19,18,.53,36.1,1.19,54.16,1.82,4.46.15,8.93.6,13.38.46,7.36-.22,12.45,3.14,16.22,9.14a111,111,0,0,0,7.41,11.1c4.48,5.53,10.75,8.67,17.1,11.56C1341.79,126.92,1349.3,130.27,1356.8,133.65Z"/><path class="cls-2" d="M.62,151.36c0-8.72-.06-17.44,0-26.15,0-.86.82-1.7,1.26-2.55l49,20.64c.64.27,1.46.44,1.83.94.81,1.09,1.95,2.41,1.87,3.55-.06.9-1.67,2.25-2.75,2.42-5.58.88-11.19,1.53-16.8,2.1-7.4.74-14.8,1.35-22.21,2A20.94,20.94,0,0,1,.62,151.36Z"/><path class="cls-8" d="M1356.81.24q0,26,0,52.07a8.13,8.13,0,0,1-.49,1.94q-2.83-19-5.68-38c-.49-3.32-1-6.64-1.4-10C1348.83,2.27,1351.66.08,1356.81.24Z"/><path class="cls-1" d="M1256.1,375.37l-23.3-.05c-3.16-1.29-4.24-3.93-4-7,1-10.16,2.09-20.3,3.25-30.44,1-8.36,1.9-16.73,3.17-25.05,1-6.82,4.89-9.81,11.79-10.2q34.34-2,68.68-4.06c.69,0,1.39,0,2.08-.08,8.51-.94,10.22,4.13,9.63,10.83-.68,7.68-1.93,15.32-3,23-1.55,11.68-3.15,23.36-4.65,35-.77,5.95-2.74,7.85-8.63,7.86q-12.53,0-25,0a24,24,0,0,1-4.14-.36c-3.2-.59-4.8-2.8-4.34-6q3.61-25,7.28-50c.34-2.28,1.06-4.69-2.24-5.45a5.38,5.38,0,0,0-6.79,4.17c-.77,3.78-1.35,7.61-2,11.42-2.18,13.38-4.31,26.78-6.51,40.16-.89,5.4-1.66,6-7.19,6.11Z"/><path class="cls-1" d="M29.85,375.36l-25.09,0c-3.07-1.36-4.15-3.86-3.8-7,2-18.3,4-36.62,6.23-54.9.87-7.17,4.87-10.35,11.92-10.76,19-1.08,38.05-2.31,57.08-3.45,4.85-.29,9.72-.35,14.57-.71,6.51-.48,8.84,2.86,8.7,8.83-.13,5.42-1.08,10.83-1.79,16.22-1.91,14.53-3.89,29-5.82,43.58-.86,6.48-2.57,8.09-9,8.11-8.35,0-16.7,0-25-.09-2,0-4.49-.16-5.91-1.3a6.84,6.84,0,0,1-2.07-5.37c2.24-16.57,4.78-33.11,7.21-49.67.34-2.26.94-4.7-2.4-5.38-3-.62-5.89.8-6.49,3.7-1.1,5.33-2,10.71-2.85,16.08-2,12.4-4,24.82-6,37.22-.59,3.61-2,4.75-5.59,4.83Z"/><path class="cls-1" d="M845.76,375.39l-22.13,0c-3.12-1.23-4.36-3.7-4.08-6.85.76-8.48,1.57-17,2.51-25.43,1.05-9.34,2.31-18.66,3.42-28,.9-7.54,4.62-11.93,10.58-12.37,2.78-.2,5.55-.43,8.32-.58l58-3.18c2.28-.13,4.55-.38,6.83-.42,6.76-.12,9.82,3.18,9,10-1.46,12.09-3.08,24.16-4.69,36.23-1.06,8-2.11,16.1-3.36,24.12-.74,4.76-2.6,6.25-7.46,6.29q-13.56.1-27.13,0c-6-.08-7.84-2.57-6.95-8.55,2.41-16.05,4.69-32.12,7.11-48.17.36-2.39.56-4.44-2.46-5-3.26-.64-6,1-6.6,4-.68,3.5-1.24,7-1.8,10.54q-3.36,20.81-6.69,41.62c-.72,4.52-2,5.61-6.73,5.72Z"/><path class="cls-1" d="M1050.34,375.39l-22.13,0c-3.43-1.39-4.36-4.26-4-7.51,1.38-13.3,2.87-26.59,4.38-39.87.56-4.92,1.06-9.86,2-14.72,1.42-7.6,4.69-10.21,12.34-10.65q34.48-2,69-4c.5,0,1,0,1.49-.06,7.31-.94,10.14,3.37,9.27,10.42q-3.63,29.32-7.42,58.64c-.73,5.74-2.85,7.66-8.56,7.63-9.54-.07-19.07-.12-28.6-.41-3.81-.12-5.47-2.41-4.93-6.18,1.38-9.8,2.84-19.59,4.27-29.38,1-6.86,2-13.72,3-20.57.37-2.42.68-4.69-2.55-5.29s-6,1-6.56,4.08c-.72,3.69-1.31,7.4-1.91,11.12-2.23,13.87-4.41,27.76-6.66,41.63-.6,3.72-2.2,5-6.12,5Z"/><path class="cls-1" d="M638.8,375.4H619.05a6.17,6.17,0,0,1-4.13-6.82c.79-8.68,1.57-17.36,2.54-26,1-9.25,2.21-18.49,3.46-27.71s5.47-12,13.07-12.36c22.5-1.07,45-2.57,67.46-3.91.89-.05,1.79-.05,2.68-.07,7.15-.1,9.82,2.42,9.26,9.65s-1.61,14.17-2.54,21.23q-2.58,19.57-5.28,39.14c-.69,4.94-2.67,6.64-7.77,6.67-8.95,0-17.89,0-26.83-.06-6-.07-7.9-2.19-7.05-8.18,1.76-12.44,3.74-24.85,5.59-37.28.57-3.82,1-7.66,1.56-11.48.34-2.24.43-4.24-2.43-4.81-3.09-.63-5.93.84-6.55,3.66-.74,3.38-1.28,6.81-1.83,10.23q-3.36,21-6.69,41.91c-.8,5-2,6-7,6.05Z"/><path class="cls-1" d="M540.39,375.38l-23.91,0c-3.3-1.5-4.29-4.23-3.92-7.58,1.91-17.23,3.81-34.46,5.81-51.68a30.24,30.24,0,0,1,1.66-6.58c1.61-4.54,5.06-6.57,9.8-6.84q35.08-2,70.18-4.09c9.23-.56,12,2.1,10.84,11.34q-3.58,29-7.41,58.06c-.71,5.45-2.78,7.25-8.27,7.23-9.54,0-19.08,0-28.61-.36-4.18-.14-5.7-2.55-5.09-6.6q3.75-25,7.45-49.95c.35-2.37.21-4.4-2.78-4.91a5.39,5.39,0,0,0-6.6,4.48c-.9,5.06-1.7,10.15-2.52,15.23-2,12.41-4,24.83-6,37.23-.63,3.8-2,4.83-5.84,4.92Z"/><path class="cls-1" d="M437.21,375.39l-22.74,0c-3.47-1.27-4.49-4-4.17-7.36.81-8.78,1.59-17.56,2.58-26.32q1.55-13.73,3.47-27.42c1.07-7.67,5-11.45,12.67-11.78,21.62-.95,43.23-2.36,64.84-3.59,2.38-.14,4.75-.37,7.13-.4,4.94-.07,7.61,2.1,7.64,7a108.34,108.34,0,0,1-1.2,14.48q-3.09,24-6.42,48c-.75,5.52-2.7,7.17-8.27,7.19q-13.12,0-26.25-.06c-6.14-.05-8-2-7.16-8,2-14.11,4.14-28.2,6.22-42.31.33-2.25.63-4.51.88-6.77s.3-4.25-2.63-4.72-5.7.89-6.33,3.61c-.77,3.37-1.27,6.8-1.83,10.22-2.33,14.27-4.59,28.54-7,42.79-.76,4.5-1.83,5.21-6.37,5.27C440.59,375.28,438.9,375.34,437.21,375.39Z"/><path class="cls-1" d="M129.46,375.39l-22.13,0a6,6,0,0,1-4.07-6.54c.5-6.71,1.1-13.42,1.86-20.11,1.27-11.31,2.71-22.61,4.07-33.91.86-7.17,4.51-11.54,10.22-12.07,3.06-.29,6.14-.45,9.21-.62,20.61-1.18,41.24-2.16,61.83-3.59,10.36-.73,12,3.35,11.11,11.22-1.31,11.8-2.9,23.57-4.43,35.35-1,8-2.12,16.1-3.33,24.12-.61,4-2.42,5.86-6.28,5.9-10.12.09-20.25,0-30.37-.31-3.82-.11-5.45-2-5-5.81,1.06-8.74,2.43-17.44,3.68-26.16,1.17-8.23,2.3-16.47,3.57-24.68.31-2.05.49-3.79-1.89-4.61s-5.43.12-6.55,2.19a8.09,8.09,0,0,0-.73,2.54q-4.2,25.47-8.34,51c-.77,4.73-2.06,5.92-6.78,6Z"/><path class="cls-1" d="M950.73,375.36l-24.53.06c-3.5-1.05-4.47-3.74-4.22-7,.57-7.11,1.18-14.21,2-21.29,1.26-11.12,2.65-22.22,4.1-33.31,1-7.52,4.91-10.78,12.49-11.21,18.92-1.08,37.84-2.31,56.76-3.44,4.95-.3,9.91-.54,14.87-.67,5.68-.14,8.42,2.29,8.18,8-.25,6-1.07,12-1.85,18-1.86,14.33-3.83,28.64-5.77,43-.82,6.07-2.59,7.7-8.74,7.67-9.44,0-18.87-.11-28.3-.4-3.82-.12-5.45-2.35-4.9-6.14,2.1-14.7,4.27-29.38,6.41-44.07.3-2.06.67-4.11.88-6.18s.56-4.49-2.6-5c-2.92-.5-5.77.86-6.35,3.55-1,4.44-1.65,8.95-2.38,13.44-2.1,12.9-4.1,25.81-6.28,38.69-1,5.69-1.63,6.11-7.38,6.19C952.31,375.27,951.52,375.33,950.73,375.36Z"/><path class="cls-1" d="M1153.52,375.39l-22.74,0c-3.31-1.23-4.45-3.81-4.18-7.07.58-6.91,1.16-13.82,2-20.71,1.28-11.12,2.62-22.24,4.13-33.32,1-7.42,4.81-11.42,12.67-11.77,22.52-1,45-2.55,67.5-3.88,1.2-.07,2.39-.11,3.58-.13,6.16-.12,8.92,2.35,8.61,8.52-.3,5.93-1.11,11.84-1.88,17.73q-2.84,21.64-5.84,43.28c-.74,5.43-2.61,7.16-8,7.14q-14.44,0-28.9-.39c-3.84-.1-5.43-1.94-4.91-5.81,1.59-11.88,3.38-23.72,5.09-35.58.72-5,1.47-10,2.11-15,.27-2.17.61-4.5-2.58-5s-5.72.93-6.4,3.87-1.19,6-1.68,9.06q-3.39,21.26-6.74,42.53c-.84,5.34-2,6.32-7.33,6.41C1156.5,375.28,1155,375.34,1153.52,375.39Z"/><path class="cls-1" d="M744.37,375.38l-23.31-.05c-3.29-1.42-4-4.16-3.72-7.35.85-9.08,1.63-18.16,2.65-27.21s2.22-18.28,3.5-27.4c1-7,5.07-10.33,12-10.72,18.93-1.06,37.85-2.29,56.78-3.41,5.06-.3,10.13-.35,15.18-.74,6.13-.48,8.48,3.14,8.32,8.27-.17,5.62-1,11.23-1.78,16.82-1.91,14.63-3.92,29.24-5.84,43.87-.79,6-2.6,7.75-8.69,7.77-8.64,0-17.29,0-25.94-.1-1.81,0-4-.28-5.33-1.29a5.77,5.77,0,0,1-2.08-4.5c2-15.2,4.37-30.37,6.6-45.55.25-1.66.47-3.33.69-5,.3-2.29.85-4.7-2.44-5.39-3-.63-5.84.84-6.47,3.75-.93,4.24-1.58,8.55-2.28,12.85-2.22,13.57-4.37,27.16-6.62,40.73-.56,3.35-2.05,4.44-5.55,4.52Z"/><path class="cls-1" d="M233.23,375.38l-23.9-.06c-3-1.6-4-4.23-3.67-7.47,1.12-11,2.19-22.06,3.41-33.08.77-7,1.59-14,2.71-20.91,1.25-7.78,5.49-11,12.43-11.36,22.7-1,45.38-2.54,68.06-3.86.9-.05,1.8,0,2.68-.11,6.91-.69,9.59,2.78,9.1,9.2-.67,8.68-1.9,17.32-3,26-1.48,11.38-3.08,22.75-4.63,34.13-.77,5.66-2.67,7.43-8.37,7.39-9.53,0-19.07-.16-28.59-.39-3.73-.09-5.38-2.07-4.89-5.86,1.23-9.42,2.63-18.82,4-28.22,1.05-7.35,2.19-14.69,3.2-22,.31-2.24.82-4.73-2.54-5.31-3.18-.55-5.91,1-6.5,4.13-1.25,6.61-2.32,13.25-3.41,19.89-1.76,10.74-3.43,21.5-5.24,32.23-.83,4.95-1.7,5.56-6.64,5.62C236,375.27,234.62,375.34,233.23,375.38Z"/><path class="cls-1" d="M334.63,375.39l-22.73,0c-3.19-1.38-4.37-4-4-7.22q1.78-17.58,3.76-35.15c.76-6.69,1.53-13.39,2.67-20,1.25-7.26,4.75-9.91,12-10.33,18.83-1.07,37.65-2.29,56.47-3.41,5.16-.31,10.32-.56,15.48-.7,5.75-.15,9,3.16,8.3,8.92-1.69,14.36-3.6,28.68-5.44,43-.69,5.4-1.47,10.79-2.1,16.2-.79,6.75-2.73,8.58-9.58,8.54-9.13-.07-18.27-.35-27.41-.3-3.89,0-5.69-3.2-5.23-6.31q3.13-20.85,6.16-41.72c.4-2.74.62-5.51,1.11-8.24.45-2.45.69-4.65-2.53-5.26s-5.77,1-6.48,3.81c-.33,1.34-.51,2.72-.74,4.09q-3.88,23.88-7.77,47.76c-.87,5.36-1.71,6.12-7.11,6.23Z"/><path class="cls-2" d="M351.08,222.4q21.15,0,42.31,0a11.74,11.74,0,0,1,4.12.45,5.29,5.29,0,0,1,2.94,2.41c.24.57-1.1,2.27-2.08,2.74-4.9,2.36-9.93,4.49-14.91,6.7Q360.23,245.06,337,255.38c-7.53,3.33-12.26,9.55-16.85,15.95a20.47,20.47,0,0,0-1.46,2.24c-3.73,7.11-9.44,9.9-17.63,10.19-23.8.87-47.57,2.54-71.35,3.82-1.68.09-4.73-.18-4.84-.75a10.25,10.25,0,0,1,.54-6.18,30.31,30.31,0,0,1,16.2-15.21c31.61-13.34,63-27.18,94.42-41A27.35,27.35,0,0,1,351.08,222.4Z"/><path class="cls-1" d="M1272.15,222.39h42.3a8.19,8.19,0,0,1,3.23.34,26.56,26.56,0,0,1,3.89,2.59c-1,1-1.71,2.45-2.88,3-7.46,3.46-15,6.72-22.54,10.05-12.87,5.71-25.75,11.38-38.59,17.15-6.18,2.78-10.47,7.77-14.44,13-2.1,2.76-3.92,5.72-5.85,8.6a13.89,13.89,0,0,1-11.5,6.37q-30,1.53-60.06,3.17c-5.44.29-10.89.72-16.34,1-4,.2-5.52-1.41-3.89-4.95,2.9-6.29,6.16-12.4,13.16-15.43,18.83-8.14,37.58-16.49,56.39-24.69,13.54-5.91,27.18-11.59,40.66-17.63A29.1,29.1,0,0,1,1272.15,222.39Z"/><path class="cls-2" d="M535.18,287.57c-3.82.22-5.34-1.87-3.44-5.65,3.17-6.3,6.81-12.08,14-15.14,32.54-14,65-28.19,97.37-42.43,5.57-2.44,11.32-2.65,17.19-2.56q19.08.28,38.14.59a24.31,24.31,0,0,1,5.62.42c1.26.33,2.3,1.5,3.44,2.3-.86,1.06-1.49,2.6-2.61,3.11-10.45,4.79-21,9.4-31.51,14.07-8.79,3.9-17.5,8-26.4,11.64s-15.08,10.38-20.29,18.15c-.88,1.32-1.79,2.63-2.6,4-3.24,5.36-8,7.31-14.22,7.57-16.56.71-33.1,1.85-49.65,2.76C551.85,286.85,543.51,287.18,535.18,287.57Z"/><path class="cls-2" d="M453.15,222.64h45.29a1.82,1.82,0,0,1,.88.08c1.17.74,2.32,1.53,3.47,2.31-.84,1.07-1.46,2.61-2.56,3.14-6,2.88-12.08,5.52-18.16,8.22-14.42,6.39-28.89,12.66-43.25,19.19-7.31,3.33-12,9.58-16.5,15.94a30.66,30.66,0,0,0-1.76,2.76c-3.61,6.5-8.95,9.14-16.56,9.44-24,.94-48,2.58-72,3.85-1.73.09-4.72-.23-5-1.05a8.86,8.86,0,0,1,.68-5.86c3.49-7.49,9.22-12.34,17-15.64,31.5-13.37,62.76-27.28,94.22-40.73,4.35-1.86,9.33-2.23,14-3.29Z"/><path class="cls-1" d="M1067.41,222.39q21.16,0,42.31,0a10.5,10.5,0,0,1,3.82.41,16.59,16.59,0,0,1,3.4,2.41c-.84,1-1.49,2.39-2.56,2.89-7,3.28-14.09,6.38-21.16,9.51-13.24,5.87-26.49,11.68-39.71,17.59-7.76,3.47-12.71,10-17.42,16.64-.85,1.22-1.67,2.47-2.43,3.74-3.22,5.41-7.9,7.77-14.26,8-16.86.71-33.7,1.84-50.54,2.78q-12,.68-24.09,1.26c-4.08.2-5.51-1.17-3.94-4.86,2.59-6.1,5.68-12.13,12.27-15.06Q974,258.45,995,249.28c19.18-8.35,38.33-16.77,57.64-24.82,4.56-1.89,9.69-2.39,14.56-3.54C1067.28,221.41,1067.35,221.9,1067.41,222.39Z"/><path class="cls-2" d="M555.37,222.38q21.3,0,42.6,0a10.81,10.81,0,0,1,3.83.41,18,18,0,0,1,3.46,2.33c-.89,1.06-1.58,2.56-2.72,3.1-5.64,2.7-11.39,5.14-17.1,7.66q-21.77,9.65-43.52,19.29c-7.56,3.37-12.48,9.6-17.1,16.12a16.11,16.11,0,0,0-1.29,2c-3.77,7.39-9.66,10.22-18.07,10.49-22.71.73-45.39,2.28-68.09,3.52-1.88.1-3.76.29-5.64.41s-3-.76-2.86-2.81a6.34,6.34,0,0,1,.26-2.34c3.24-6.27,6.51-12.43,13.58-15.48,16.84-7.27,33.59-14.74,50.4-22.07,15.45-6.73,31-13.29,46.38-20.1C544.61,222.64,549.82,221.5,555.37,222.38Z"/><path class="cls-2" d="M965.16,222.4h42.89a5.67,5.67,0,0,1,2.35.22c1.42.67,2.71,1.59,4.06,2.4-1,1.18-1.82,2.78-3.1,3.44-3.6,1.87-7.4,3.35-11.12,5-16.59,7.34-33.2,14.65-49.76,22.06-6,2.67-10.15,7.53-14,12.58-2,2.58-3.77,5.35-5.52,8.11-3,4.82-7.33,7.09-13.09,7.35-19.83.92-39.64,2-59.46,3.11-5.35.29-10.69.72-16,1-4,.21-5.4-1.36-3.82-5,2.89-6.58,6.52-12.64,13.69-15.7,12.68-5.41,25.24-11.08,37.88-16.57,20.54-8.93,41.06-17.93,61.73-26.57,4.08-1.7,8.8-1.89,13.23-2.77C965.07,221.53,965.12,222,965.16,222.4Z"/><path class="cls-2" d="M126.06,287.63c-4,.18-5.48-1.27-3.87-4.86,2.79-6.25,6-12.36,12.85-15.33q49.8-21.67,99.57-43.39c5.4-2.37,11-2.33,16.65-2.25q19.53.25,39,.59a16.4,16.4,0,0,1,4.72.44c1.17.37,2.77,1.38,2.93,2.33s-1.16,2.46-2.2,3c-6,2.85-12.1,5.49-18.18,8.18-14.41,6.4-28.87,12.71-43.24,19.21-7.84,3.54-12.71,10.26-17.37,17.1-1,1.4-1.88,2.8-2.81,4.21-2.89,4.41-7,6.48-12.24,6.71-11.8.52-23.6,1.23-35.4,1.88Z"/><path class="cls-1" d="M636.65,287.72c-3,.11-4.42-1.43-2.74-5.18,2.9-6.47,6.49-12.43,13.55-15.49,33.32-14.41,66.53-29.1,100-43.24,4.61-1.95,10.28-1.88,15.46-1.92,12.72-.1,25.44.28,38.15.49a19.48,19.48,0,0,1,5,.41c1.37.4,2.53,1.5,3.78,2.28-1,1.12-1.68,2.7-2.9,3.26-9,4.17-18.09,8.13-27.16,12.14-11.34,5-22.74,9.92-34,15.1-7,3.22-11.64,9.12-16,15.25-1.37,1.94-2.67,3.94-4,5.94-2.88,4.41-6.92,6.52-12.21,6.78-20,1-40.06,2.07-60.09,3.15C648.3,287,643.05,287.33,636.65,287.72Z"/><path class="cls-2" d="M862.64,222.41c14.5,0,29,0,43.5,0,2.3,0,5.36-.27,5.85,2.76.46,2.82-2.62,3.15-4.46,4-18.74,8.38-37.46,16.82-56.33,24.89-8.66,3.71-14.49,10.18-19.64,17.6-1.19,1.71-2.3,3.47-3.47,5.2-3,4.45-7.17,6.43-12.55,6.69-23.7,1.14-47.4,2.46-71.09,3.73-2,.1-4,.27-5.94.41-1.73.12-2.64-.67-2.58-2.43a7,7,0,0,1,.27-2.93c3.24-6,6.27-12.11,13.18-15.1C782.23,253,815,238.6,847.9,224.5c4.52-1.94,9.67-2.43,14.53-3.58Z"/><path class="cls-1" d="M1169.94,222.38q21.15,0,42.31,0a13.8,13.8,0,0,1,4.41.54,4,4,0,0,1,2.34,2.24c.19.67-.73,2.09-1.51,2.5-3.16,1.65-6.43,3.09-9.69,4.54-16.68,7.41-33.31,14.94-50.08,22.13-7.74,3.33-13.23,8.92-18,15.56-2.06,2.91-4,5.91-6.15,8.75-2.66,3.51-6.45,4.65-10.71,4.86q-30,1.53-60.08,3.17c-5.36.29-10.7.72-16,1-3.55.18-4.84-.85-3.61-4.07a51.4,51.4,0,0,1,6.61-11.45,14,14,0,0,1,5.6-4.21q50.94-22.37,102-44.41c3.78-1.62,8.27-1.59,12.44-2.33C1169.87,221.6,1169.9,222,1169.94,222.38Z"/><path class="cls-1" d="M146.72,222.4q21,0,42,0a12,12,0,0,1,4.12.48c1.17.44,2.08,1.54,3.1,2.35-.77.94-1.34,2.31-2.33,2.77-6.91,3.24-13.91,6.32-20.89,9.41-12.52,5.55-25,11.28-37.6,16.53-8.6,3.58-14.44,9.93-19.56,17.26q-1.78,2.57-3.48,5.2c-3,4.7-7.25,6.9-12.9,7.17-23.71,1.12-47.41,2.45-71.11,3.71-2,.11-4,.3-5.94.42-1.72.1-2.65-.66-2.55-2.45.06-1-.14-2.14.3-2.93,3.18-5.8,6-11.89,12.67-14.8,17.56-7.65,35.05-15.43,52.6-23.1,14.73-6.43,29.55-12.66,44.23-19.2C135,222.75,140.65,221.45,146.72,222.4Z"/><path class="cls-1" d="M1356.81,225.91l0,30.85A79.32,79.32,0,0,0,1340,276.57a14.15,14.15,0,0,1-12.1,7c-12.3.52-24.59,1.25-36.89,1.93-12.68.7-25.37,1.48-38.06,2.11-1.65.09-4.58-.17-4.78-.87a8.87,8.87,0,0,1,.48-5.92c3.4-6.8,8.19-11.94,15.61-15.09,29.94-12.72,59.68-25.91,89.5-38.9A24.23,24.23,0,0,1,1356.81,225.91Z"/><path class="cls-2" d="M.65,282.9q0-23.11,0-46.21c8.55-3.72,17.18-7.28,25.63-11.21a43.22,43.22,0,0,1,20-3.74c13,.35,26,.43,39,.64a15.66,15.66,0,0,1,4.72.39c1.32.46,2.38,1.68,3.56,2.56-.95,1-1.7,2.46-2.88,3-6.92,3.22-14,6.22-20.93,9.31-13.43,5.95-26.89,11.82-40.25,17.91-7,3.2-11.64,9.12-16,15.23-1.61,2.26-3,4.67-4.69,6.89C6.79,280.41,4.42,282.79.65,282.9Z"/><path class="cls-1" d="M1356.8,375.2l-21.44.18c-3.17-1.19-4.37-3.67-4.1-6.82.74-8.58,1.52-17.16,2.47-25.72,1-9.34,2.29-18.67,3.48-28,1.12-8.76,5.3-12.36,14-12.29,1.85,0,3.7-.24,5.55-.38Q1356.8,338.68,1356.8,375.2Z"/></g></g></svg>